<svg width="10" height="7" viewBox="0 0 10 7" fill="none" xmlns="http://www.w3.org/2000/svg">
<path d="M0.411262 0.829537C0.546605 0.682627 0.730145 0.600098 0.92152 0.600098C1.1129 0.600098 1.29644 0.682627 1.43178 0.829537L5.00431 4.70856L8.57684 0.829537C8.71296 0.686791 8.89527 0.607804 9.0845 0.609589C9.27373 0.611375 9.45475 0.69379 9.58856 0.839083C9.72238 0.984376 9.79828 1.18092 9.79992 1.38639C9.80157 1.59186 9.72882 1.78981 9.59736 1.9376L5.51457 6.37066C5.37922 6.51757 5.19568 6.6001 5.00431 6.6001C4.81293 6.6001 4.62939 6.51757 4.49405 6.37066L0.411262 1.9376C0.27596 1.79065 0.199951 1.59136 0.199951 1.38357C0.199951 1.17578 0.27596 0.976491 0.411262 0.829537Z" fill="#212529"/>
</svg>
