<svg width="31" height="30" viewBox="0 0 31 30" fill="none" xmlns="http://www.w3.org/2000/svg">
<path d="M11.3636 3C8.85368 3 6.90909 5.38104 6.90909 8.18919C6.90909 10.9973 8.85368 13.3784 11.3636 13.3784C13.8736 13.3784 15.8182 10.9973 15.8182 8.18919C15.8182 5.38104 13.8736 3 11.3636 3ZM11.3636 4.2973C13.0711 4.2973 14.5455 5.98199 14.5455 8.18919C14.5455 10.3964 13.0711 12.0811 11.3636 12.0811C9.65615 12.0811 8.18182 10.3964 8.18182 8.18919C8.18182 5.98199 9.65615 4.2973 11.3636 4.2973ZM22.5 5.91892C20.6643 5.91892 19.3182 7.73917 19.3182 9.81081C19.3182 11.8824 20.6643 13.7027 22.5 13.7027C24.3357 13.7027 25.6818 11.8824 25.6818 9.81081C25.6818 7.73917 24.3357 5.91892 22.5 5.91892ZM22.5 7.21622C23.4759 7.21622 24.4091 8.30006 24.4091 9.81081C24.4091 11.3216 23.4759 12.4054 22.5 12.4054C21.5241 12.4054 20.5909 11.3216 20.5909 9.81081C20.5909 8.30006 21.5241 7.21622 22.5 7.21622ZM11.3636 14.6757C8.72016 14.6757 6.32875 15.2164 4.54261 16.1554C2.75648 17.0944 1.5 18.4976 1.5 20.1892V26.3514C1.50002 26.5234 1.56707 26.6884 1.68641 26.81C1.80574 26.9316 1.96759 27 2.13636 27H20.5909C20.7597 27 20.9215 26.9316 21.0409 26.81C21.1602 26.6884 21.2273 26.5234 21.2273 26.3514V24.0811H28.8636C29.0324 24.0811 29.1943 24.0127 29.3136 23.8911C29.4329 23.7694 29.5 23.6045 29.5 23.4324V19.2162C29.5 17.9316 28.5809 16.8646 27.3125 16.1453C26.0441 15.426 24.3602 15 22.5 15C20.7458 15 19.1562 15.3874 17.9162 16.0338C16.1612 15.1765 13.8803 14.6757 11.3636 14.6757ZM11.3636 15.973C13.8321 15.973 16.0485 16.4962 17.598 17.3108C19.1475 18.1254 19.9545 19.1657 19.9545 20.1892V25.7027H2.77273V20.1892C2.77273 19.1657 3.57974 18.1254 5.12926 17.3108C6.67879 16.4962 8.8952 15.973 11.3636 15.973ZM22.5 16.2973C24.1653 16.2973 25.664 16.6951 26.696 17.2804C27.7281 17.8657 28.2273 18.5843 28.2273 19.2162V22.7838H21.2273V20.1892C21.2273 18.8697 20.4625 17.7297 19.2784 16.8446C20.1924 16.5078 21.3 16.2973 22.5 16.2973Z" fill="#FF5400"/>
</svg>
