<svg width="31" height="30" viewBox="0 0 31 30" fill="none" xmlns="http://www.w3.org/2000/svg">
<path fill-rule="evenodd" clip-rule="evenodd" d="M12.8497 11.365C12.7169 9.79942 11.4447 8.57153 9.89489 8.57153C8.25667 8.57153 6.92859 9.9436 6.92859 11.6362C6.92859 13.3287 8.25667 14.7008 9.89489 14.7008C11.1798 14.7008 12.2739 13.8567 12.6861 12.676H15.0949V14.3445C15.0949 14.7066 15.379 15.0001 15.7295 15.0001C16.0799 15.0001 16.364 14.7066 16.364 14.3445V12.676H17.4453V14.3445C17.4453 14.7066 17.7293 15.0001 18.0798 15.0001C18.4302 15.0001 18.7143 14.7066 18.7143 14.3445V12.676C18.7143 11.952 18.1461 11.365 17.4453 11.365H12.8497ZM11.5921 11.6362C11.5921 12.6046 10.8323 13.3897 9.89489 13.3897C8.95755 13.3897 8.19764 12.6046 8.19764 11.6362C8.19764 10.6677 8.95755 9.88265 9.89489 9.88265C10.8323 9.88265 11.5921 10.6677 11.5921 11.6362Z" fill="#FF5400"/>
<path fill-rule="evenodd" clip-rule="evenodd" d="M17.8886 18.3011C16.2709 19.7406 14.1449 20.6142 11.8162 20.6142C6.74989 20.6142 2.64282 16.4792 2.64282 11.3785C2.64282 6.27777 6.74989 2.14282 11.8162 2.14282C16.8825 2.14282 20.9896 6.27777 20.9896 11.3785C20.9896 13.6886 20.1472 15.8006 18.7548 17.42L20.6428 19.3208C21.3563 18.9356 22.2642 19.0461 22.8663 19.6522L26.7335 23.5457C27.4697 24.2869 27.4697 25.4886 26.7335 26.2298C25.9973 26.971 24.8037 26.971 24.0675 26.2298L20.2003 22.3363C19.6352 21.7673 19.5038 20.927 19.8063 20.2319L17.8886 18.3011ZM19.7583 11.3785C19.7583 15.7946 16.2025 19.3745 11.8162 19.3745C7.42993 19.3745 3.87413 15.7946 3.87413 11.3785C3.87413 6.96243 7.42993 3.38249 11.8162 3.38249C16.2025 3.38249 19.7583 6.96243 19.7583 11.3785ZM25.8629 24.4223L21.9956 20.5288C21.7403 20.2717 21.3263 20.2717 21.0709 20.5288C20.8156 20.7858 20.8156 21.2026 21.0709 21.4597L24.9382 25.3532C25.1935 25.6103 25.6075 25.6103 25.8629 25.3532C26.1182 25.0961 26.1182 24.6793 25.8629 24.4223Z" fill="#FF5400"/>
</svg>
