<svg width="31" height="30" viewBox="0 0 31 30" fill="none" xmlns="http://www.w3.org/2000/svg">
<path d="M4.16667 5C2.68717 5 1.5 6.28735 1.5 7.83407V22.1552C1.5 23.7019 2.68717 25 4.16667 25H26.8333C28.3129 25 29.5 23.7019 29.5 22.1552V7.83407C29.5 6.28735 28.3129 5 26.8333 5H4.16667ZM4.16667 6.37931H26.8333C27.0289 6.37931 27.2181 6.42869 27.3854 6.50862L16.3646 17.0582C15.8554 17.5455 15.1768 17.5456 14.6667 17.0582L3.625 6.50862C3.79017 6.43121 3.97437 6.37931 4.16667 6.37931ZM2.8542 7.65086L10.6771 15.1293L3 22.8556C2.8987 22.6486 2.83333 22.414 2.83333 22.1552V7.83407C2.83333 7.77069 2.84753 7.71159 2.8542 7.65086ZM28.1459 7.66155C28.1519 7.71886 28.1665 7.77428 28.1665 7.83397V22.1551C28.1665 22.4084 28.1077 22.6407 28.0103 22.8447L20.3541 15.1185L28.1459 7.66155ZM19.3854 16.0452L26.875 23.6206C26.861 23.6206 26.8473 23.6206 26.8333 23.6206H4.16667C4.156 23.6206 4.146 23.6208 4.13533 23.6206L11.6562 16.0559L13.7603 18.071C14.7495 19.0161 16.2818 19.0174 17.2708 18.071L19.3854 16.0452Z" fill="#FF5400"/>
</svg>
