<svg width="28" height="28" viewBox="0 0 28 28" fill="none" xmlns="http://www.w3.org/2000/svg">
<path d="M16.3328 5.27233C17.6 5.75056 18.699 6.60723 19.5106 7.71322L19.5356 7.74995C20.4538 9.01696 21.001 10.606 21.001 12.329C21.001 15.8443 21.6947 16.7296 22.3356 17.548C23.0158 18.4158 23.649 19.2242 23.649 21.8354C23.649 22.1823 23.3857 22.4639 23.0612 22.4639H17.6136C17.4015 23.2145 16.9914 23.873 16.4483 24.3676C15.7876 24.9694 14.9322 25.3333 14.0002 25.3333C13.0685 25.3333 12.2134 24.9694 11.5527 24.3676C11.0097 23.8727 10.5992 23.2145 10.3868 22.4639H4.93948C4.61503 22.4639 4.35165 22.1823 4.35165 21.8354C4.35165 19.2239 4.98459 18.4162 5.66473 17.548C6.30669 16.7284 7.00174 15.8406 7.00174 12.329C6.99931 10.5908 7.55591 8.98913 8.48901 7.71693C9.30066 6.60871 10.4003 5.75205 11.6679 5.27307C11.6114 5.05306 11.5808 4.82229 11.5808 4.5867C11.5808 3.87324 11.8522 3.22582 12.2898 2.75798C12.7274 2.29013 13.3329 2 14.0002 2C14.6675 2 15.273 2.29013 15.7106 2.75798C16.1481 3.22582 16.4195 3.87287 16.4195 4.58633C16.4195 4.82192 16.389 5.05269 16.3328 5.27233ZM24.9916 15.7145C24.8309 16.0139 24.4728 16.117 24.1928 15.9452C23.9128 15.7735 23.8163 15.3906 23.977 15.0912C24.3882 14.3291 24.4718 13.4583 24.274 12.6688C24.0766 11.8801 23.5966 11.1714 22.8839 10.7314C22.6039 10.5581 22.5084 10.1741 22.6705 9.87474C22.8325 9.57533 23.1917 9.4733 23.4717 9.64656C24.4652 10.2602 25.1332 11.2467 25.408 12.3446C25.6825 13.4409 25.5652 14.6519 24.9916 15.7145ZM27.0209 17.1562C26.7915 17.4015 26.4195 17.4015 26.1902 17.1562C25.9893 16.9414 25.9643 16.6094 26.1156 16.3652C26.8498 14.9854 26.9973 13.4157 26.6402 11.991C26.2804 10.5541 25.4084 9.26442 24.1113 8.46378C24.0655 8.43558 24.0245 8.40182 23.9888 8.36397C23.7577 8.11985 23.7577 7.72212 23.987 7.47688C24.1935 7.25613 24.5152 7.23424 24.7449 7.41047C26.2984 8.38883 27.3419 9.94115 27.7743 11.6667C28.208 13.3979 28.0283 15.3064 27.1344 16.9863C27.1066 17.0475 27.0688 17.105 27.0209 17.1562ZM4.02304 15.0912C4.1837 15.3906 4.08723 15.7735 3.8072 15.9452C3.52716 16.117 3.16905 16.0139 3.00839 15.7145C2.43479 14.6519 2.3175 13.4409 2.59198 12.3446C2.86681 11.2467 3.5348 10.2602 4.52828 9.64656C4.80831 9.4733 5.16747 9.57533 5.32952 9.87474C5.49157 10.1741 5.39614 10.5581 5.11611 10.7314C4.40336 11.1714 3.92345 11.8801 3.726 12.6688C3.52821 13.4583 3.61183 14.3291 4.02304 15.0912ZM1.88443 16.3652C2.03573 16.6094 2.01074 16.9414 1.80983 17.1562C1.58046 17.4015 1.20847 17.4015 0.979094 17.1562C0.931207 17.105 0.893383 17.0475 0.865623 16.9863C-0.0282668 15.3064 -0.208016 13.3979 0.225742 11.6667C0.657765 9.94115 1.70156 8.38883 3.25511 7.41047C3.48483 7.23424 3.8065 7.25613 4.01297 7.47688C4.24235 7.72212 4.24235 8.11985 4.01297 8.36509C3.9755 8.40182 3.93455 8.43558 3.88875 8.46378C2.59163 9.26442 1.71961 10.5541 1.35976 11.991C1.00269 13.4157 1.15017 14.9854 1.88443 16.3652ZM16.3633 22.4639H11.6374C11.797 22.8312 12.0292 23.1559 12.3148 23.4156C12.7666 23.8274 13.3554 24.0763 14.0002 24.0763C14.6456 24.0763 15.2345 23.827 15.6863 23.4156C15.9715 23.1559 16.204 22.8312 16.3633 22.4639ZM18.5876 8.48863C17.7985 7.41344 16.6874 6.6217 15.4115 6.28334C15.3393 6.26776 15.2685 6.23733 15.2032 6.19133C14.9333 6.00026 14.8594 5.61106 15.0381 5.32242C15.103 5.21779 15.1557 5.09907 15.1918 4.97032C15.2258 4.85086 15.2438 4.72175 15.2438 4.58633C15.2438 4.2194 15.1043 3.88623 14.8798 3.64618C14.6553 3.40614 14.3434 3.25699 14.0002 3.25699C13.6563 3.25699 13.345 3.40614 13.1205 3.64618C12.896 3.88623 12.7565 4.21902 12.7565 4.5867C12.7565 4.71358 12.7725 4.83565 12.802 4.94918L12.8086 4.9707C12.8446 5.09907 12.8974 5.21779 12.9623 5.32279C12.9984 5.38215 13.0261 5.44893 13.0428 5.52165C13.1188 5.85779 12.9255 6.19652 12.6111 6.27777C11.3261 6.61354 10.206 7.40825 9.41205 8.49012C8.63684 9.54528 8.17497 10.8791 8.17497 12.329C8.1722 16.3007 7.3366 17.3677 6.56486 18.3531C6.08391 18.9671 5.63245 19.5433 5.54327 21.2069H22.4574C22.3682 19.5433 21.9164 18.9668 21.4355 18.3531C20.662 17.3655 19.8254 16.2977 19.8254 12.329C19.8254 10.8921 19.3718 9.56939 18.6098 8.5172L18.5876 8.48863Z" fill="#FF5400"/>
</svg>
