<svg width="31" height="30" viewBox="0 0 31 30" fill="none" xmlns="http://www.w3.org/2000/svg">
<path d="M6.79143 5.01454C7.22151 4.57818 7.498 3.99636 7.498 3.35636C7.498 2.04727 6.39207 1 5.04037 1C3.68868 1 2.55203 2.04727 2.55203 3.35636C2.55203 3.99636 2.82851 4.57818 3.2586 5.01454C2.42915 5.36364 1.78403 6.09091 1.66114 6.99273L1.50754 7.98182C1.47682 8.24364 1.53826 8.50545 1.72259 8.68C1.90691 8.88364 2.15267 9 2.42915 9H7.55944C7.83592 9 8.08168 8.88364 8.266 8.68C8.45032 8.47636 8.54248 8.21455 8.48104 7.98182L8.32744 6.99273C8.266 6.09091 7.62088 5.33455 6.79143 5.01454ZM5.04037 1.90182C5.86982 1.90182 6.54567 2.54182 6.54567 3.32727C6.54567 4.11273 5.86982 4.75273 5.04037 4.75273C4.21093 4.75273 3.50436 4.14182 3.50436 3.35636C3.50436 2.57091 4.18021 1.90182 5.04037 1.90182ZM2.45987 8.09818L2.61347 7.10909C2.73635 6.29455 3.47364 5.71273 4.33381 5.71273H5.74694C6.60711 5.71273 7.34439 6.32364 7.46728 7.10909L7.62088 8.09818H2.45987Z" fill="#FF5400"/>
<path d="M28.25 3H10.75C10.0655 3 9.5 3.54286 9.5 4.2V6.8C9.5 7.45714 10.0655 8 10.75 8H28.25C28.9345 8 29.5 7.45714 29.5 6.8V4.2C29.5 3.54286 28.9345 3 28.25 3ZM28.5774 6.8C28.5774 6.97143 28.4286 7.08571 28.2798 7.08571H10.75C10.5714 7.08571 10.4524 6.94286 10.4524 6.8V4.2C10.4524 4.02857 10.6012 3.91429 10.75 3.91429H28.25C28.4286 3.91429 28.5476 4.05714 28.5476 4.2V6.8H28.5774Z" fill="#FF5400"/>
<path d="M6.82215 14.5164C7.25223 14.0255 7.52872 13.3709 7.52872 12.6509C7.52872 11.1782 6.42279 10 5.04037 10C3.65796 10 2.55203 11.1782 2.55203 12.6509C2.55203 13.3709 2.82851 14.0255 3.2586 14.5164C2.42915 14.9091 1.78403 15.7273 1.66114 16.7418L1.50754 17.8545C1.47682 18.1491 1.53826 18.4436 1.72259 18.64C1.90691 18.8691 2.15267 19 2.42915 19H7.55944C7.83592 19 8.08168 18.8691 8.266 18.64C8.45032 18.4109 8.54248 18.1164 8.48104 17.8545L8.32744 16.7418C8.29672 15.7273 7.6516 14.9091 6.82215 14.5164ZM5.07109 11.0473C5.90054 11.0473 6.57639 11.7673 6.57639 12.6509C6.57639 13.5345 5.90054 14.2545 5.07109 14.2545C4.24165 14.2545 3.53508 13.5345 3.53508 12.6509C3.53508 11.7673 4.21093 11.0473 5.07109 11.0473ZM2.49059 18.0182L2.64419 16.9055C2.76707 15.9891 3.50436 15.3345 4.36453 15.3345H5.77766C6.63783 15.3345 7.37511 16.0218 7.498 16.9055L7.6516 18.0182H2.49059Z" fill="#FF5400"/>
<path d="M24.1951 12H10.8049C10.0903 12 9.5 12.6514 9.5 13.44V16.56C9.5 17.3486 10.0903 18 10.8049 18H24.1951C24.9097 18 25.5 17.3486 25.5 16.56V13.44C25.5 12.6171 24.9097 12 24.1951 12ZM24.5369 16.5257C24.5369 16.7314 24.3816 16.8686 24.2262 16.8686H10.8049C10.6184 16.8686 10.4942 16.6971 10.4942 16.5257V13.4057C10.4942 13.2 10.6495 13.0629 10.8049 13.0629H24.1951C24.3816 13.0629 24.5058 13.2343 24.5058 13.4057V16.5257H24.5369Z" fill="#FF5400"/>
<path d="M6.77584 25C7.20218 24.5652 7.47626 23.9855 7.47626 23.3478C7.47626 22.0435 6.37995 21 5.00957 21C3.63919 21 2.54288 22.0435 2.54288 23.3478C2.54288 23.9855 2.81696 24.5652 3.2433 25C2.42107 25.3478 1.78155 26.0725 1.65974 26.971L1.50748 27.9565C1.47702 28.2174 1.53793 28.4783 1.72065 28.6522C1.93382 28.8841 2.2079 29 2.48197 29H7.56762C7.8417 29 8.08532 28.8841 8.26804 28.6812C8.45076 28.4783 8.54212 28.2174 8.48121 27.9855L8.3594 26.971C8.23759 26.0725 7.59807 25.3478 6.77584 25ZM5.04002 21.9275C5.86225 21.9275 6.53222 22.5652 6.53222 23.3478C6.53222 24.1304 5.86225 24.7681 5.04002 24.7681C4.21779 24.7681 3.51737 24.1594 3.51737 23.3768C3.51737 22.5652 4.18734 21.9275 5.04002 21.9275ZM2.48197 28.1014L2.63424 27.1159C2.75605 26.3043 3.48692 25.7246 4.3396 25.7246H5.74044C6.59312 25.7246 7.324 26.3333 7.44581 27.1159L7.59807 28.1014H2.48197Z" fill="#FF5400"/>
<path d="M19.2095 22H10.7905C10.0838 22 9.5 22.5429 9.5 23.2V25.8C9.5 26.4571 10.0838 27 10.7905 27H19.2095C19.9162 27 20.5 26.4571 20.5 25.8V23.2C20.5 22.5429 19.9162 22 19.2095 22ZM19.5475 25.8C19.5475 25.9714 19.3939 26.0857 19.2402 26.0857H10.7905C10.6061 26.0857 10.4832 25.9429 10.4832 25.8V23.2C10.4832 23.0286 10.6369 22.9143 10.7905 22.9143H19.2095C19.3939 22.9143 19.5168 23.0571 19.5168 23.2V25.8H19.5475Z" fill="#FF5400"/>
</svg>
