<svg width="31" height="30" viewBox="0 0 31 30" fill="none" xmlns="http://www.w3.org/2000/svg">
<path d="M20.4329 1C20.427 1.00051 20.421 1.00112 20.415 1.00182H5.73298C4.50673 1.00182 3.5 1.91813 3.5 3.04022V26.9616C3.5 28.0837 4.50673 29 5.73298 29H26.264C27.4902 29 28.5 28.0842 28.5 26.9616V8.36065C28.4987 8.35625 28.4974 8.35187 28.496 8.34751C28.4945 8.29233 28.4826 8.2378 28.461 8.18629C28.4584 8.18028 28.4558 8.17432 28.453 8.16841C28.4269 8.11253 28.3896 8.06167 28.3429 8.0185L20.8053 1.14152C20.7563 1.09659 20.6981 1.06097 20.634 1.0367C20.5699 1.01243 20.5023 0.999887 20.4329 1ZM5.73238 1.96828H19.9081V6.8031C19.9081 7.92573 20.9149 8.84149 22.1411 8.84149H27.4457V26.9617C27.4457 27.563 26.9265 28.0346 26.2634 28.0346H5.73238C5.06921 28.0346 4.55415 27.5635 4.55415 26.9617V3.04028C4.55415 2.43843 5.06921 1.96828 5.73238 1.96828ZM20.9619 2.64806L26.0174 7.25848L26.6945 7.87603H22.1411C21.4779 7.87603 20.9619 7.4044 20.9619 6.8031V2.64806ZM20.4103 13.2992C20.341 13.2989 20.2724 13.3112 20.2083 13.3353C20.1442 13.3594 20.0859 13.3948 20.0368 13.4396C19.9877 13.4843 19.9487 13.5375 19.922 13.5961C19.8953 13.6547 19.8815 13.7175 19.8814 13.781V24.6951C19.8815 24.7586 19.8953 24.8214 19.922 24.88C19.9487 24.9386 19.9877 24.9918 20.0368 25.0365C20.0859 25.0812 20.1442 25.1167 20.2083 25.1408C20.2724 25.1649 20.341 25.1771 20.4103 25.1769H24.0077C24.1469 25.1764 24.2803 25.1254 24.3786 25.0352C24.4769 24.9449 24.5323 24.8226 24.5325 24.6951V13.781C24.5323 13.6534 24.4769 13.5312 24.3786 13.4409C24.2803 13.3506 24.1469 13.2997 24.0077 13.2992H20.4103ZM20.9351 14.2656H23.4788V24.2105H20.9351V14.2656ZM14.1991 15.7081C14.0599 15.7086 13.9266 15.7596 13.8283 15.8498C13.73 15.9401 13.6746 16.0623 13.6743 16.1899V24.6951C13.6746 24.8226 13.73 24.9449 13.8283 25.0352C13.9266 25.1254 14.0599 25.1764 14.1991 25.1769H17.7966C17.8659 25.1771 17.9345 25.1649 17.9986 25.1408C18.0627 25.1167 18.121 25.0812 18.1701 25.0365C18.2192 24.9918 18.2582 24.9386 18.2849 24.88C18.3116 24.8214 18.3254 24.7586 18.3255 24.6951V16.1899C18.3254 16.1264 18.3116 16.0636 18.2849 16.005C18.2582 15.9464 18.2192 15.8932 18.1701 15.8485C18.121 15.8037 18.0627 15.7683 17.9986 15.7442C17.9345 15.7201 17.8659 15.7079 17.7966 15.7081H14.1991ZM14.7281 16.6745H17.2718V24.2105H14.7281V16.6745ZM7.99211 19.4926C7.85239 19.4931 7.7186 19.5445 7.62019 19.6353C7.52177 19.7262 7.46678 19.8492 7.46732 19.9772V24.6951C7.4676 24.8226 7.52295 24.9449 7.62128 25.0352C7.7196 25.1254 7.85292 25.1764 7.99211 25.1769H11.5896C11.6588 25.1771 11.7275 25.1649 11.7916 25.1408C11.8557 25.1167 11.9139 25.0812 11.963 25.0365C12.0122 24.9917 12.0512 24.9386 12.0779 24.88C12.1045 24.8214 12.1183 24.7586 12.1185 24.6951V19.9772C12.1187 19.9135 12.1052 19.8504 12.0787 19.7915C12.0523 19.7326 12.0133 19.6791 11.9641 19.634C11.915 19.589 11.8566 19.5533 11.7923 19.529C11.728 19.5047 11.6591 19.4924 11.5896 19.4926H7.99211ZM8.52101 20.459H11.0648V24.2105H8.52101V20.459Z" fill="#FF5400"/>
</svg>
