<svg width="75" height="78" viewBox="0 0 75 78" fill="none" xmlns="http://www.w3.org/2000/svg">
<g filter="url(#filter0_d_256_836)">
<path fill-rule="evenodd" clip-rule="evenodd" d="M25.9909 -40.271L-39.77 25.4899L-3.00046 62.2595L62.7605 -3.50144L25.9909 -40.271ZM26.964 19.4511L17.4512 28.9639C17.1578 29.2573 16.6839 29.2573 16.3905 28.9639L12.529 25.1025C9.60892 22.1823 9.60892 17.4491 12.529 14.529C15.4492 11.6089 20.1824 11.6089 23.1025 14.529L26.964 18.3905C27.2573 18.6838 27.2573 19.1578 26.964 19.4511ZM13.7223 15.7223C11.4618 17.9828 11.4618 21.6487 13.7223 23.9092L16.9208 27.1078L18.1638 25.8648L15.3299 23.0309C15.2387 22.9397 15.2387 22.7906 15.3299 22.6994L16.0591 21.9702C16.1502 21.8791 16.2994 21.8791 16.3905 21.9702L19.2245 24.8042L25.1078 18.9208L21.9093 15.7223C19.6487 13.4617 15.9828 13.4617 13.7223 15.7223ZM8.7405 19.2092V20.5217C8.73885 20.6262 8.65598 20.709 8.55323 20.709H6.30264C6.25305 20.7088 6.20556 20.689 6.17049 20.6539C6.13542 20.6188 6.11561 20.5713 6.11537 20.5217V19.2092C6.11561 19.1596 6.13542 19.1121 6.17049 19.077C6.20556 19.042 6.25305 19.0221 6.30264 19.0219H8.55323C8.65598 19.0219 8.7405 19.1064 8.7405 19.2092ZM17.2125 8.11202H18.5251C18.6278 8.11202 18.7107 8.19488 18.7124 8.29929V10.5499C18.7124 10.6526 18.6278 10.7372 18.5251 10.7372H17.2125C17.1629 10.7369 17.1154 10.7171 17.0804 10.682C17.0453 10.647 17.0255 10.5995 17.0253 10.5499V8.29929C17.0255 8.2497 17.0453 8.20221 17.0804 8.16714C17.1154 8.13207 17.1629 8.11226 17.2125 8.11202ZM17.9649 30.5715L28.5715 19.9649C28.8649 19.6716 29.3389 19.6716 29.6322 19.9649L30.0299 20.3626C30.1029 20.4356 30.1029 20.5549 30.0299 20.6278L18.6278 32.0299C18.5549 32.1028 18.4356 32.1028 18.3627 32.0299L17.9649 31.6322C17.6716 31.3388 17.6716 30.8648 17.9649 30.5715ZM11.9324 13.0043L11.0043 13.9324C10.9314 14.0053 10.8121 14.0053 10.7392 13.9324L9.14819 12.3414C9.07528 12.2685 9.07528 12.1492 9.14819 12.0762L10.0763 11.1482C10.1492 11.0752 10.2685 11.0752 10.3414 11.1482L11.9324 12.7391C12.0053 12.8121 12.0053 12.9314 11.9324 13.0043Z" fill="#D40000"/>
</g>
<defs>
<filter id="filter0_d_256_836" x="-47.77" y="-45.271" width="122.531" height="122.531" filterUnits="userSpaceOnUse" color-interpolation-filters="sRGB">
<feFlood flood-opacity="0" result="BackgroundImageFix"/>
<feColorMatrix in="SourceAlpha" type="matrix" values="0 0 0 0 0 0 0 0 0 0 0 0 0 0 0 0 0 0 127 0" result="hardAlpha"/>
<feOffset dx="2" dy="5"/>
<feGaussianBlur stdDeviation="5"/>
<feComposite in2="hardAlpha" operator="out"/>
<feColorMatrix type="matrix" values="0 0 0 0 0.203922 0 0 0 0 0.227451 0 0 0 0 0.25098 0 0 0 0.15 0"/>
<feBlend mode="normal" in2="BackgroundImageFix" result="effect1_dropShadow_256_836"/>
<feBlend mode="normal" in="SourceGraphic" in2="effect1_dropShadow_256_836" result="shape"/>
</filter>
</defs>
</svg>
