<svg width="31" height="30" viewBox="0 0 31 30" fill="none" xmlns="http://www.w3.org/2000/svg">
<path d="M7.78575 2C7.60745 2 7.43646 2.07106 7.31038 2.19754C7.18431 2.32403 7.11348 2.49558 7.11348 2.67445V3.98964H4.86136C3.96987 3.98964 3.1149 4.34493 2.48452 4.97736C1.85414 5.60978 1.5 6.46753 1.5 7.36191V19.637C1.5 20.5314 1.85414 21.3891 2.48452 22.0215C3.1149 22.654 3.96987 23.0092 4.86136 23.0092H13.8698C14.3546 24.1629 15.0974 25.1892 16.0409 26.0087C16.9843 26.8282 18.103 27.419 19.3105 27.7353C20.5179 28.0516 21.7817 28.0849 23.0041 27.8327C24.2264 27.5805 25.3745 27.0496 26.3596 26.2809C27.3447 25.5123 28.1402 24.5266 28.6848 23.4001C29.2293 22.2736 29.5082 21.0365 29.4998 19.7845C29.4915 18.5326 29.1961 17.2993 28.6366 16.1802C28.0771 15.0611 27.2685 14.0862 26.2733 13.3308V7.39563C26.2733 6.95278 26.1863 6.51426 26.0174 6.10512C25.8485 5.69598 25.6009 5.32422 25.2887 5.01108C24.9766 4.69793 24.606 4.44953 24.1982 4.28006C23.7904 4.11059 23.3533 4.02336 22.9119 4.02336H20.6598V2.67445C20.6598 2.49558 20.5889 2.32403 20.4629 2.19754C20.3368 2.07106 20.1658 2 19.9875 2C19.8092 2 19.6382 2.07106 19.5121 2.19754C19.3861 2.32403 19.3152 2.49558 19.3152 2.67445V3.98964H8.45802V2.67445C8.45802 2.49558 8.3872 2.32403 8.26112 2.19754C8.13504 2.07106 7.96405 2 7.78575 2ZM28.1892 19.8393C28.1892 21.1852 27.7918 22.5008 27.0472 23.6203C26.3026 24.7398 25.2441 25.6129 24.0054 26.1295C22.7666 26.646 21.4031 26.7829 20.0869 26.5228C18.7707 26.2627 17.5608 25.6172 16.6099 24.6679C15.659 23.7186 15.0097 22.508 14.7439 21.1888C14.4781 19.8697 14.6078 18.5011 15.1166 17.2558C15.6253 16.0105 16.4904 14.9443 17.6026 14.1917C18.7147 13.4392 20.0242 13.034 21.3657 13.0273C23.1696 13.0273 24.9001 13.7439 26.1788 15.0205C27.4575 16.297 28.1803 18.0296 28.1892 19.8393ZM19.3488 5.33855V6.31651C19.3488 6.49538 19.4197 6.66693 19.5457 6.79342C19.6718 6.9199 19.8428 6.99096 20.0211 6.99096C20.1994 6.99096 20.3704 6.9199 20.4965 6.79342C20.6226 6.66693 20.6934 6.49538 20.6934 6.31651V5.37227H22.9119C23.4468 5.37227 23.9598 5.58545 24.338 5.9649C24.7162 6.34436 24.9287 6.859 24.9287 7.39563V12.4878C23.5475 11.8108 22.0034 11.5403 20.4753 11.7076C18.9472 11.8749 17.4976 12.4732 16.2945 13.4332C15.0914 14.3931 14.184 15.6755 13.6776 17.1315C13.1711 18.5876 13.0863 20.1579 13.4328 21.6603H4.86136C4.32647 21.6603 3.81349 21.4472 3.43526 21.0677C3.05703 20.6883 2.84455 20.1736 2.84455 19.637V7.39563C2.84455 6.859 3.05703 6.34436 3.43526 5.9649C3.81349 5.58545 4.32647 5.37227 4.86136 5.37227H7.11348V6.35023C7.11348 6.52911 7.18431 6.70066 7.31038 6.82714C7.43646 6.95363 7.60745 7.02468 7.78575 7.02468C7.96405 7.02468 8.13504 6.95363 8.26112 6.82714C8.3872 6.70066 8.45802 6.52911 8.45802 6.35023V5.37227L19.3488 5.33855Z" fill="#FF5400"/>
<path d="M23.8985 20.5276H21.703V16.7362C21.703 16.5409 21.6396 16.3537 21.5268 16.2156C21.414 16.0776 21.261 16 21.1015 16C20.942 16 20.789 16.0776 20.6762 16.2156C20.5634 16.3537 20.5 16.5409 20.5 16.7362V21.2638C20.5 21.4591 20.5634 21.6463 20.6762 21.7844C20.789 21.9224 20.942 22 21.1015 22H23.8985C24.058 22 24.211 21.9224 24.3238 21.7844C24.4366 21.6463 24.5 21.4591 24.5 21.2638C24.5 21.0686 24.4366 20.8813 24.3238 20.7432C24.211 20.6052 24.058 20.5276 23.8985 20.5276Z" fill="#FF5400"/>
</svg>
