<svg width="31" height="30" viewBox="0 0 31 30" fill="none" xmlns="http://www.w3.org/2000/svg">
<g clip-path="url(#clip0_143_470)">
<path d="M12.0079 15.5C12.2069 15.5 12.3976 15.4202 12.5383 15.2781C12.6789 15.1361 12.7579 14.9434 12.7579 14.7424C12.7579 14.5415 12.6789 14.3488 12.5383 14.2068C12.3976 14.0647 12.2069 13.9849 12.0079 13.9849C11.0903 13.9849 10.1932 14.2597 9.43016 14.7745C8.66709 15.2893 8.07224 16.0211 7.72079 16.8774C7.36935 17.7336 7.27709 18.6759 7.45568 19.5851C7.63427 20.4943 8.07569 21.3296 8.72414 21.9854C9.3726 22.6413 10.199 23.0882 11.0989 23.2698C11.9987 23.4514 12.9317 23.3594 13.7798 23.0055C14.628 22.6516 15.3532 22.0517 15.8639 21.2816C16.3746 20.5115 16.6478 19.6057 16.6489 18.6788C16.6489 18.4779 16.5699 18.2852 16.4293 18.1431C16.2886 18.001 16.0979 17.9212 15.8989 17.9212C15.7 17.9212 15.5093 18.001 15.3686 18.1431C15.228 18.2852 15.1489 18.4779 15.1489 18.6788C15.1489 19.3078 14.9642 19.9226 14.6182 20.4455C14.2721 20.9684 13.7802 21.3758 13.2049 21.6162C12.6295 21.8566 11.9964 21.9192 11.3858 21.7961C10.7752 21.6729 10.2144 21.3696 9.77455 20.9244C9.33468 20.4792 9.03543 19.9123 8.91468 19.2952C8.79393 18.6782 8.85711 18.0389 9.09622 17.4581C9.33533 16.8774 9.73962 16.3813 10.2579 16.0328C10.7762 15.6842 11.3853 15.4988 12.0079 15.5Z" fill="#FF5400"/>
<path d="M2.41995 21.2908L3.53295 21.4878C3.6731 21.9196 3.8456 22.34 4.04895 22.7454L3.40095 23.6787C3.13704 24.058 3.01428 24.5193 3.05435 24.9812C3.09442 25.4431 3.29474 25.8758 3.61995 26.2029L4.55895 27.1514C4.88285 27.4799 5.31124 27.6823 5.76848 27.7227C6.22572 27.7632 6.68242 27.6392 7.05795 27.3726L7.98195 26.7181C8.3833 26.9234 8.79949 27.0976 9.22695 27.2393L9.42195 28.3636C9.49926 28.8219 9.73484 29.2378 10.0869 29.5373C10.4389 29.8369 10.8846 30.0008 11.345 29.9999H12.674C13.1348 30.0015 13.5812 29.8379 13.9339 29.5383C14.2865 29.2387 14.5226 28.8224 14.6 28.3636L14.795 27.2393C15.2224 27.0977 15.6386 26.9235 16.04 26.7181L16.964 27.3726C17.3395 27.6392 17.7962 27.7632 18.2534 27.7227C18.7107 27.6823 19.139 27.4799 19.463 27.1514L20.4019 26.2029C20.7272 25.8758 20.9275 25.4431 20.9676 24.9812C21.0076 24.5193 20.8849 24.058 20.621 23.6787L19.973 22.7454C20.1762 22.34 20.3487 21.9196 20.4889 21.4878L21.6019 21.2908C21.7021 21.2778 21.7985 21.2443 21.8855 21.1926C21.9725 21.1408 22.0481 21.0718 22.108 20.9896C22.1678 20.9075 22.2105 20.814 22.2335 20.7147C22.2566 20.6155 22.2595 20.5125 22.242 20.4121C22.2246 20.3116 22.1871 20.2158 22.132 20.1304C22.0769 20.045 22.0052 19.9718 21.9212 19.9151C21.8373 19.8585 21.7429 19.8196 21.6437 19.8008C21.5444 19.7821 21.4425 19.7838 21.344 19.806L19.778 20.0848C19.6367 20.1081 19.5051 20.1719 19.3987 20.2686C19.2924 20.3653 19.2157 20.4908 19.178 20.6302C19.0114 21.258 18.7643 21.8611 18.443 22.4242C18.3722 22.5485 18.338 22.6907 18.3444 22.834C18.3507 22.9773 18.3974 23.1158 18.479 23.2333L19.4 24.5454C19.4652 24.6356 19.496 24.7467 19.4866 24.858C19.4772 24.9694 19.4283 25.0736 19.349 25.1514L18.41 26.0999C18.3329 26.1801 18.2297 26.2295 18.1195 26.239C18.0092 26.2484 17.8993 26.2173 17.81 26.1514L16.508 25.2423C16.3917 25.16 16.2546 25.1128 16.1127 25.1064C15.9708 25.1 15.8301 25.1345 15.707 25.206C15.1514 25.5301 14.5564 25.7797 13.937 25.9484C13.7989 25.9866 13.6747 26.064 13.5789 26.1714C13.4832 26.2789 13.42 26.4118 13.397 26.5545L13.121 28.1363C13.0954 28.2369 13.0372 28.3259 12.9556 28.3891C12.874 28.4523 12.7738 28.486 12.671 28.4848H11.345C11.2371 28.4851 11.1325 28.4469 11.0497 28.3771C10.9668 28.3073 10.911 28.2102 10.892 28.1029L10.616 26.5211C10.5929 26.3785 10.5297 26.2455 10.434 26.1381C10.3382 26.0306 10.214 25.9532 10.076 25.9151C9.45478 25.7486 8.85775 25.5011 8.29995 25.1787C8.17682 25.1072 8.03608 25.0727 7.89421 25.0791C7.75234 25.0856 7.61523 25.1327 7.49895 25.2151L6.19695 26.1242C6.10759 26.1901 5.99767 26.2211 5.88742 26.2117C5.77717 26.2022 5.67402 26.1528 5.59695 26.0726L4.67295 25.1514C4.59356 25.0736 4.54468 24.9694 4.53531 24.858C4.52594 24.7467 4.55671 24.6356 4.62195 24.5454L5.52195 23.2302C5.6052 23.1146 5.65419 22.9774 5.66322 22.8347C5.67225 22.692 5.64094 22.5496 5.57295 22.4242C5.25193 21.8631 5.00484 21.262 4.83795 20.6363C4.80017 20.4969 4.72354 20.3713 4.61717 20.2746C4.5108 20.1779 4.37918 20.1141 4.23795 20.0908L2.67195 19.812C2.56583 19.7914 2.47033 19.7335 2.40228 19.6487C2.33423 19.5639 2.29799 19.4576 2.29995 19.3484V18.009C2.29967 17.9 2.3374 17.7944 2.40653 17.7108C2.47565 17.6271 2.57175 17.5707 2.67795 17.5514L4.24395 17.2726C4.38518 17.2493 4.5168 17.1855 4.62317 17.0888C4.72954 16.9921 4.80617 16.8666 4.84395 16.7272C5.01063 16.1004 5.25773 15.4983 5.57895 14.9363C5.64971 14.8119 5.6839 14.6697 5.67753 14.5264C5.67115 14.3831 5.62447 14.2446 5.54295 14.1272L4.64295 12.812C4.57771 12.7218 4.54694 12.6107 4.55631 12.4994C4.56568 12.388 4.61456 12.2838 4.69395 12.206L5.59995 11.2696C5.67625 11.1885 5.77901 11.138 5.88929 11.1274C5.99956 11.1168 6.1099 11.1469 6.19995 11.212L7.50195 12.1211C7.61823 12.2035 7.75534 12.2506 7.89721 12.2571C8.03908 12.2635 8.17982 12.229 8.30295 12.1575C8.85944 11.8331 9.45548 11.5835 10.076 11.4151C10.214 11.3769 10.3382 11.2995 10.434 11.1921C10.5297 11.0846 10.5929 10.9517 10.616 10.809L10.892 9.22719C10.9166 9.03459 10.8667 8.8398 10.7528 8.68337C10.6389 8.52694 10.4696 8.42091 10.2802 8.38734C10.0909 8.35377 9.89598 8.39524 9.73611 8.50313C9.57625 8.61102 9.46372 8.77702 9.42195 8.96659L9.22695 10.0908C8.79948 10.2324 8.38328 10.4067 7.98195 10.612L7.05795 9.9575C6.68242 9.69091 6.22572 9.56692 5.76848 9.60739C5.31124 9.64787 4.88285 9.85021 4.55895 10.1787L3.61995 11.1272C3.2952 11.4547 3.09543 11.8876 3.05591 12.3495C3.01639 12.8113 3.13966 13.2725 3.40395 13.6514L4.05195 14.5848C3.84862 14.9901 3.67612 15.4105 3.53595 15.8423L2.41995 16.0605C1.96516 16.1388 1.55266 16.3776 1.25596 16.7345C0.959269 17.0913 0.797664 17.543 0.799951 18.009V19.3514C0.799796 19.8159 0.962368 20.2654 1.25888 20.6203C1.55538 20.9753 1.96669 21.2128 2.41995 21.2908Z" fill="#FF5400"/>
<path d="M29.102 8.8242L28.262 8.43026C28.1835 7.78166 28.0159 7.14727 27.764 6.54541L28.295 5.77875C28.5498 5.41219 28.6684 4.9666 28.63 4.52041C28.5916 4.07421 28.3986 3.65599 28.085 3.33935L27.185 2.43026C26.8715 2.1135 26.4575 1.91857 26.0158 1.87977C25.574 1.84097 25.1329 1.96079 24.77 2.21814L24.02 2.76663C23.4242 2.51217 22.7961 2.34287 22.154 2.2636L21.764 1.41511C21.5771 1.00835 21.254 0.681319 20.8517 0.49171C20.4494 0.302102 19.9937 0.262096 19.565 0.378749L18.365 0.706022C17.9319 0.819912 17.553 1.08585 17.2963 1.45621C17.0396 1.82656 16.9218 2.27714 16.964 2.72723L17.045 3.63632C16.53 4.03102 16.0708 4.4949 15.68 5.01511L14.759 4.93329C14.3175 4.89379 13.8763 5.01282 13.513 5.26944C13.1498 5.52606 12.8878 5.90383 12.773 6.33632L12.449 7.54845C12.3335 7.98145 12.3731 8.44173 12.5608 8.84812C12.7486 9.2545 13.0723 9.58087 13.475 9.76966L14.315 10.1636C14.3935 10.8122 14.5611 11.4466 14.813 12.0484L14.282 12.8151C14.0272 13.1817 13.9086 13.6273 13.947 14.0735C13.9854 14.5197 14.1784 14.9379 14.492 15.2545L15.392 16.1636C15.7055 16.4804 16.1195 16.6753 16.5613 16.7141C17.003 16.7529 17.4441 16.6331 17.807 16.3757L18.566 15.8394C19.1551 16.0994 19.777 16.2759 20.414 16.3636L20.804 17.2121C20.9923 17.6165 21.3156 17.9411 21.7171 18.129C22.1187 18.3168 22.5728 18.3559 23 18.2394L24.2 17.9121C24.6287 17.7968 25.0034 17.5324 25.2581 17.1654C25.5127 16.7984 25.631 16.3524 25.592 15.906L25.511 14.9757C25.7682 14.7785 26.0117 14.5639 26.24 14.3333C26.4768 14.1016 26.6974 13.8535 26.9 13.5909L27.821 13.6727C28.2626 13.7122 28.7038 13.5932 29.067 13.3365C29.4302 13.0799 29.6923 12.7021 29.807 12.2697L30.131 11.0575C30.2494 10.6225 30.211 10.1591 30.0225 9.75001C29.834 9.34094 29.5078 9.01282 29.102 8.8242ZM28.685 10.6424L28.361 11.8545C28.3391 11.9466 28.2854 12.0277 28.2095 12.0833C28.1335 12.1389 28.0405 12.1652 27.947 12.1575L26.6 12.0515C26.4661 12.04 26.3317 12.0651 26.2108 12.1243C26.0899 12.1835 25.987 12.2745 25.913 12.3878C25.4989 13.0194 24.9633 13.5604 24.338 13.9787C24.2259 14.0535 24.1357 14.1574 24.0771 14.2795C24.0185 14.4016 23.9936 14.5375 24.005 14.6727L24.125 16.0333C24.1326 16.1277 24.1066 16.2217 24.0515 16.2984C23.9965 16.3751 23.9162 16.4294 23.825 16.4515L22.625 16.7787C22.5357 16.8032 22.4406 16.7951 22.3567 16.7557C22.2727 16.7164 22.2052 16.6483 22.166 16.5636L21.593 15.3212C21.5359 15.198 21.447 15.0928 21.3356 15.0165C21.2241 14.9402 21.0944 14.8958 20.96 14.8878C20.2084 14.8463 19.4732 14.6493 18.8 14.3091C18.6796 14.2485 18.5453 14.2218 18.4112 14.232C18.2771 14.2421 18.1481 14.2886 18.038 14.3666L16.937 15.1515C16.8612 15.2051 16.769 15.2299 16.6768 15.2216C16.5846 15.2133 16.4983 15.1723 16.433 15.106L15.533 14.1969C15.4722 14.1303 15.4358 14.0447 15.4298 13.9543C15.4237 13.8639 15.4485 13.7742 15.5 13.7L16.277 12.5787C16.3526 12.4685 16.3977 12.3399 16.4077 12.2063C16.4177 12.0726 16.3923 11.9386 16.334 11.8181C15.9977 11.1421 15.8017 10.4038 15.758 9.64845C15.7502 9.51271 15.7062 9.38165 15.6307 9.2691C15.5551 9.15655 15.4509 9.0667 15.329 9.00905L14.099 8.43026C14.0151 8.3907 13.9478 8.3225 13.9088 8.23768C13.8698 8.15286 13.8618 8.05687 13.886 7.96663L14.21 6.75451C14.2319 6.66242 14.2856 6.58126 14.3616 6.52569C14.4375 6.47012 14.5306 6.4438 14.624 6.45148L15.971 6.57269C16.1049 6.58421 16.2394 6.55905 16.3603 6.49985C16.4812 6.44066 16.584 6.34962 16.658 6.23632C17.0722 5.60476 17.6078 5.06373 18.233 4.64542C18.3476 4.57007 18.4396 4.46439 18.4988 4.33988C18.5581 4.21538 18.5824 4.07684 18.569 3.93935L18.449 2.57875C18.4414 2.48436 18.4675 2.39033 18.5225 2.31365C18.5775 2.23696 18.6578 2.18267 18.749 2.16057L19.949 1.83329C20.0384 1.80881 20.1334 1.81696 20.2174 1.85632C20.3013 1.89568 20.3688 1.96372 20.408 2.04845L20.981 3.29087C21.0381 3.41401 21.127 3.51928 21.2385 3.59555C21.3499 3.67183 21.4796 3.71628 21.614 3.7242C22.3618 3.76835 23.0927 3.96634 23.762 4.30602C23.8833 4.36632 24.0185 4.39225 24.1532 4.38105C24.2879 4.36984 24.4171 4.32192 24.527 4.24239L25.637 3.45754C25.7129 3.40394 25.805 3.37912 25.8972 3.38743C25.9894 3.39575 26.0758 3.43667 26.141 3.50299L27.041 4.41208C27.1067 4.478 27.1472 4.56521 27.1554 4.65834C27.1637 4.75147 27.1391 4.84455 27.086 4.92117L26.3 6.03329C26.2228 6.14452 26.1767 6.27475 26.1667 6.41022C26.1567 6.5457 26.183 6.68139 26.243 6.80299C26.5793 7.47905 26.7753 8.21738 26.819 8.97269C26.8269 9.10842 26.8709 9.23949 26.9464 9.35204C27.0219 9.46459 27.1261 9.55443 27.248 9.61208L28.478 10.1909C28.5635 10.2289 28.6329 10.2964 28.6736 10.3814C28.7142 10.4664 28.7236 10.5632 28.7 10.6545L28.685 10.6424Z" fill="#FF5400"/>
<path d="M21.287 6.06055C20.6515 6.06055 20.0303 6.25089 19.5019 6.6075C18.9736 6.96412 18.5617 7.47099 18.3186 8.06402C18.0754 8.65705 18.0117 9.3096 18.1357 9.93916C18.2597 10.5687 18.5657 11.147 19.015 11.6009C19.4644 12.0548 20.0369 12.3639 20.6602 12.4891C21.2834 12.6143 21.9294 12.5501 22.5165 12.3044C23.1036 12.0588 23.6054 11.6428 23.9585 11.1091C24.3115 10.5754 24.5 9.94789 24.5 9.306C24.4984 8.44575 24.1594 7.62118 23.5572 7.01289C22.9549 6.40459 22.1386 6.06215 21.287 6.06055ZM21.287 11.0454C20.946 11.0472 20.6122 10.9467 20.3278 10.7567C20.0435 10.5667 19.8214 10.2956 19.6897 9.97796C19.5579 9.66029 19.5226 9.31028 19.588 8.97227C19.6534 8.63426 19.8167 8.32348 20.0572 8.07931C20.2976 7.83515 20.6044 7.66858 20.9387 7.60072C21.273 7.53287 21.6197 7.56678 21.9349 7.69816C22.25 7.82954 22.5195 8.05247 22.7091 8.33871C22.8987 8.62494 23 8.9616 23 9.306C22.9992 9.7655 22.8188 10.2061 22.4979 10.5319C22.1771 10.8576 21.7419 11.0422 21.287 11.0454Z" fill="#FF5400"/>
</g>
<defs>
<clipPath id="clip0_143_470">
<rect width="30" height="30" fill="white" transform="translate(0.5)"/>
</clipPath>
</defs>
</svg>
