<svg width="75" height="78" viewBox="0 0 75 78" fill="none" xmlns="http://www.w3.org/2000/svg">
<g filter="url(#filter0_d_256_837)">
<path fill-rule="evenodd" clip-rule="evenodd" d="M25.9909 -40.271L-39.77 25.4899L-3.00046 62.2595L62.7605 -3.50144L25.9909 -40.271ZM28.309 16.2615L11.6298 11.7926C10.514 11.4942 9.49362 12.5146 9.79273 13.6297L14.2616 30.3089C14.3298 30.5633 14.4637 30.7952 14.6499 30.9813C14.836 31.1675 15.068 31.3014 15.3223 31.3696C15.5766 31.4377 15.8444 31.4377 16.0987 31.3696C16.3531 31.3015 16.585 31.1676 16.7712 30.9814L28.9815 18.7711C29.1677 18.5849 29.3016 18.353 29.3697 18.0986C29.4378 17.8443 29.4378 17.5765 29.3697 17.3222C29.3015 17.0679 29.1676 16.8359 28.9815 16.6498C28.7953 16.4636 28.5634 16.3297 28.309 16.2615ZM15.9693 28.9548L11.9487 13.9486L26.9549 17.9692L15.9693 28.9548ZM19.799 20.7989C19.5338 20.7989 19.2794 20.9043 19.0919 21.0918C18.9044 21.2793 18.799 21.5337 18.799 21.7989C18.799 22.0641 18.9044 22.3185 19.0919 22.506C19.2794 22.6935 19.5338 22.7989 19.799 22.7989C20.0642 22.7989 20.3186 22.6935 20.5061 22.506C20.6936 22.3185 20.799 22.0641 20.799 21.7989C20.799 21.5337 20.6936 21.2793 20.5061 21.0918C20.3186 20.9043 20.0642 20.7989 19.799 20.7989ZM14.8492 15.8491C14.584 15.8491 14.3297 15.9545 14.1421 16.142C13.9546 16.3296 13.8493 16.5839 13.8493 16.8491C13.8493 17.1144 13.9546 17.3687 14.1421 17.5563L16.9706 20.3847C17.1581 20.5722 17.4125 20.6776 17.6777 20.6776C17.9429 20.6776 18.1972 20.5722 18.3848 20.3847C18.5723 20.1971 18.6777 19.9428 18.6777 19.6776C18.6777 19.4124 18.5723 19.158 18.3848 18.9705L15.5564 16.142C15.3688 15.9545 15.1145 15.8491 14.8492 15.8491Z" fill="#FFBC0A"/>
</g>
<defs>
<filter id="filter0_d_256_837" x="-47.77" y="-45.271" width="122.531" height="122.531" filterUnits="userSpaceOnUse" color-interpolation-filters="sRGB">
<feFlood flood-opacity="0" result="BackgroundImageFix"/>
<feColorMatrix in="SourceAlpha" type="matrix" values="0 0 0 0 0 0 0 0 0 0 0 0 0 0 0 0 0 0 127 0" result="hardAlpha"/>
<feOffset dx="2" dy="5"/>
<feGaussianBlur stdDeviation="5"/>
<feComposite in2="hardAlpha" operator="out"/>
<feColorMatrix type="matrix" values="0 0 0 0 0.203922 0 0 0 0 0.227451 0 0 0 0 0.25098 0 0 0 0.15 0"/>
<feBlend mode="normal" in2="BackgroundImageFix" result="effect1_dropShadow_256_837"/>
<feBlend mode="normal" in="SourceGraphic" in2="effect1_dropShadow_256_837" result="shape"/>
</filter>
</defs>
</svg>
